<?xml version="1.0" standalone="no"?>
<!DOCTYPE svg PUBLIC "-//W3C//DTD SVG 20010904//EN"
 "http://www.w3.org/TR/2001/REC-SVG-20010904/DTD/svg10.dtd">
<svg version="1.0" xmlns="http://www.w3.org/2000/svg"
 width="4840.000000pt" height="4880.000000pt" viewBox="0 0 4840.000000 4880.000000"
 preserveAspectRatio="xMidYMid meet">

<g transform="translate(0.000000,4880.000000) scale(0.100000,-0.100000)"
fill="#000000" stroke="none">
<path d="M23067 46878 c-7 -4 -57 -8 -113 -8 -192 0 -781 -34 -1144 -66 -96
-8 -205 -17 -243 -19 -37 -2 -71 -6 -75 -9 -5 -3 -46 -7 -93 -10 -46 -2 -91
-7 -99 -9 -29 -9 -392 -48 -398 -43 -3 3 -10 2 -16 -4 -7 -5 -41 -11 -76 -14
-36 -2 -72 -6 -80 -9 -17 -6 -259 -39 -306 -42 -17 -1 -36 -5 -41 -8 -5 -3
-34 -8 -64 -11 -30 -2 -61 -6 -69 -9 -8 -3 -89 -18 -180 -32 -91 -15 -273 -47
-405 -72 -132 -24 -251 -46 -265 -48 -14 -3 -77 -16 -140 -30 -63 -14 -131
-28 -150 -31 -53 -8 -64 -11 -80 -18 -8 -3 -28 -8 -45 -10 -16 -2 -37 -6 -45
-10 -8 -3 -29 -7 -45 -9 -17 -2 -37 -7 -44 -11 -7 -4 -15 -5 -18 -2 -3 3 -14
1 -24 -4 -10 -6 -30 -12 -46 -14 -15 -2 -35 -6 -43 -9 -20 -7 -121 -30 -140
-32 -9 0 -21 -4 -28 -9 -6 -4 -16 -5 -21 -1 -5 3 -13 0 -16 -6 -4 -5 -13 -8
-21 -5 -7 3 -16 1 -20 -5 -3 -6 -12 -8 -20 -5 -7 3 -16 1 -20 -5 -3 -6 -12 -8
-20 -5 -7 3 -16 1 -20 -5 -3 -6 -12 -8 -20 -5 -7 3 -16 1 -20 -5 -3 -6 -12 -8
-20 -5 -7 3 -16 1 -20 -5 -3 -6 -12 -8 -20 -5 -7 3 -16 1 -19 -5 -4 -5 -12 -9
-18 -8 -7 1 -19 0 -27 -4 -24 -9 -133 -39 -155 -42 -11 -1 -27 -5 -35 -8 -20
-8 -171 -50 -190 -52 -8 -1 -22 -5 -30 -8 -8 -4 -116 -36 -240 -72 -909 -266
-1825 -601 -2688 -984 -642 -285 -1354 -644 -1927 -971 -19 -11 -52 -30 -72
-41 -21 -12 -58 -33 -83 -47 -25 -14 -56 -32 -70 -42 -14 -9 -32 -20 -40 -24
-18 -8 -18 -8 -185 -109 -173 -104 -162 -97 -228 -139 -32 -21 -60 -38 -63
-38 -2 0 -45 -27 -96 -60 -50 -33 -93 -60 -96 -60 -2 0 -32 -20 -66 -43 -33
-24 -66 -46 -71 -48 -8 -3 -380 -251 -509 -339 -62 -42 -282 -195 -291 -202
-5 -5 -89 -65 -185 -135 -408 -294 -975 -743 -1374 -1087 -769 -662 -1535
-1422 -2212 -2196 -695 -795 -1399 -1736 -1959 -2620 -26 -41 -58 -91 -71
-110 -82 -124 -436 -720 -554 -935 -18 -33 -44 -78 -56 -101 -13 -23 -34 -61
-47 -85 -13 -24 -50 -91 -82 -149 -85 -154 -426 -833 -537 -1070 -704 -1502
-1248 -3134 -1578 -4735 -23 -110 -44 -207 -47 -215 -3 -8 -5 -18 -5 -23 3
-10 -68 -388 -75 -407 -3 -8 -5 -19 -4 -23 2 -11 -19 -138 -26 -157 -4 -8 -5
-19 -4 -23 2 -11 -19 -138 -26 -157 -4 -8 -5 -21 -4 -29 1 -7 -1 -20 -4 -30
-4 -9 -9 -40 -11 -69 -2 -30 -7 -59 -11 -65 -4 -7 -6 -24 -4 -39 1 -14 -2 -29
-7 -32 -6 -3 -8 -15 -5 -26 3 -11 2 -28 -2 -37 -4 -10 -7 -30 -6 -45 1 -14 -2
-29 -7 -32 -6 -3 -8 -15 -5 -26 3 -11 2 -28 -2 -37 -4 -10 -7 -30 -6 -45 1
-14 -3 -29 -8 -33 -6 -3 -8 -17 -5 -31 3 -13 3 -32 -1 -41 -4 -10 -7 -32 -6
-49 1 -18 -2 -35 -7 -38 -5 -3 -7 -17 -5 -31 3 -13 2 -33 -2 -42 -4 -10 -7
-32 -6 -49 1 -18 -2 -35 -8 -38 -6 -4 -8 -20 -4 -36 3 -16 2 -37 -2 -47 -4
-10 -7 -33 -6 -50 2 -18 -1 -38 -5 -45 -4 -7 -7 -29 -5 -49 1 -20 -2 -40 -7
-43 -6 -3 -8 -23 -5 -45 3 -21 1 -41 -5 -45 -5 -3 -7 -25 -5 -50 3 -25 1 -46
-5 -50 -7 -4 -9 -25 -5 -55 3 -30 1 -51 -5 -55 -7 -4 -9 -25 -5 -55 3 -29 1
-51 -5 -55 -6 -4 -8 -27 -5 -60 3 -32 1 -56 -5 -60 -6 -3 -8 -29 -5 -65 4 -38
2 -61 -6 -65 -7 -5 -9 -25 -5 -61 4 -30 3 -62 -1 -72 -5 -10 -7 -46 -6 -80 1
-35 -1 -68 -5 -75 -5 -7 -7 -47 -5 -89 1 -43 -2 -80 -7 -83 -5 -3 -7 -44 -5
-91 3 -48 1 -94 -2 -103 -4 -9 -7 -72 -6 -139 1 -81 -2 -123 -9 -123 -7 0 -8
-62 -4 -205 5 -152 4 -205 -4 -205 -9 0 -12 -87 -12 -330 0 -243 3 -330 12
-330 8 0 9 -52 4 -204 -4 -142 -3 -207 4 -211 7 -4 10 -50 9 -125 -1 -65 2
-123 5 -129 4 -6 6 -50 5 -99 -2 -48 1 -93 5 -100 4 -7 7 -45 6 -85 -1 -39 0
-79 4 -87 3 -8 7 -73 10 -145 2 -71 7 -138 11 -147 4 -10 5 -41 3 -68 -3 -28
-1 -53 4 -56 5 -4 9 -29 7 -58 -1 -28 2 -59 6 -69 4 -10 5 -36 2 -57 -3 -22
-1 -43 4 -46 6 -3 10 -27 10 -52 0 -26 3 -72 6 -102 3 -30 6 -74 8 -96 1 -23
5 -47 9 -53 4 -6 7 -27 7 -48 0 -21 3 -60 6 -88 3 -27 6 -66 8 -85 2 -19 6
-43 10 -53 4 -9 5 -29 2 -42 -2 -14 0 -28 5 -31 5 -3 8 -20 7 -38 -1 -17 2
-39 6 -49 4 -9 5 -29 2 -42 -2 -14 0 -28 5 -31 5 -3 8 -20 7 -38 -2 -17 0 -36
4 -42 3 -6 8 -39 11 -72 2 -33 7 -65 10 -70 3 -5 7 -36 10 -68 2 -33 7 -67 11
-77 4 -9 5 -26 2 -37 -3 -11 -1 -23 5 -26 5 -3 8 -18 7 -32 -1 -15 2 -35 6
-44 4 -10 5 -24 2 -32 -3 -7 -1 -18 4 -23 5 -5 11 -34 13 -64 2 -29 6 -61 9
-69 3 -8 22 -112 42 -230 228 -1334 615 -2734 1115 -4035 121 -316 293 -733
395 -960 13 -27 33 -72 45 -100 182 -409 457 -969 676 -1376 109 -205 145
-271 159 -294 7 -11 26 -45 43 -75 27 -51 122 -219 169 -300 11 -19 39 -65 61
-103 23 -37 42 -69 42 -72 0 -11 141 -235 148 -235 3 0 44 19 91 41 47 23 113
50 146 59 69 21 125 43 175 69 19 11 54 25 77 32 24 7 43 15 43 18 0 4 -11 22
-24 41 -33 50 -167 276 -283 480 -1228 2153 -2056 4341 -2507 6620 -61 310
-125 678 -150 860 -8 55 -37 251 -41 270 -2 9 -6 41 -10 71 -3 30 -8 65 -10
79 -2 14 -6 43 -9 65 -3 22 -8 60 -11 85 -5 45 -10 85 -20 178 -3 26 -8 65
-10 87 -3 22 -7 61 -10 88 -3 26 -7 66 -10 90 -2 23 -7 69 -10 102 -3 33 -7
83 -10 110 -2 28 -7 79 -10 115 -3 36 -8 88 -10 115 -3 28 -7 88 -10 135 -3
47 -7 121 -10 165 -11 171 -22 399 -30 600 -5 132 -5 1244 0 1355 2 52 7 158
10 235 3 77 7 163 10 190 3 28 7 102 10 165 3 63 8 142 11 175 2 33 7 87 9
120 3 33 7 83 10 110 3 28 7 77 10 110 25 324 107 969 178 1400 l23 140 7
-655 c3 -360 11 -727 16 -815 6 -88 13 -198 16 -245 3 -47 8 -123 10 -170 5
-81 31 -391 40 -475 2 -22 7 -69 10 -105 3 -36 8 -81 10 -100 2 -19 7 -60 10
-90 3 -30 8 -68 10 -85 2 -16 6 -57 10 -90 3 -33 8 -76 10 -95 3 -19 7 -71 10
-115 3 -44 8 -105 10 -135 3 -30 7 -86 10 -123 3 -37 8 -89 10 -115 3 -26 7
-74 10 -107 3 -33 8 -81 10 -107 3 -27 7 -70 10 -98 10 -96 16 -155 21 -190 4
-37 11 -92 19 -162 7 -63 15 -130 20 -158 2 -14 7 -49 10 -79 4 -30 8 -63 11
-74 2 -11 6 -43 9 -71 7 -62 14 -112 20 -146 3 -14 7 -43 11 -65 6 -42 11 -77
19 -122 2 -16 9 -59 15 -98 59 -380 167 -935 266 -1365 322 -1399 768 -2755
1371 -4175 455 -1068 1077 -2296 1693 -3340 95 -162 108 -180 130 -177 14 1
104 6 200 11 189 8 177 5 330 86 36 19 69 35 73 35 5 0 23 6 40 14 18 7 61 23
97 34 69 22 89 29 185 63 33 11 76 25 95 31 19 6 44 17 55 24 11 8 26 14 35
14 8 0 31 10 50 23 37 25 160 75 275 113 39 12 84 28 100 33 17 6 107 36 200
67 166 54 187 62 290 110 111 51 182 82 215 94 64 22 165 64 175 71 12 9 57
25 216 78 63 21 124 43 135 50 10 6 35 18 54 26 85 38 225 132 300 201 102 93
262 170 390 189 25 4 86 17 135 30 70 18 128 24 260 28 164 5 226 16 286 48
13 6 109 96 213 199 205 200 259 240 417 303 46 19 108 37 137 41 76 10 206
53 224 73 32 37 48 142 48 322 0 96 4 181 10 191 6 10 17 54 25 97 13 66 15
237 15 1117 0 720 -3 1060 -11 1105 -12 71 -70 203 -97 223 -20 15 -120 151
-129 176 -4 9 -17 29 -29 44 -12 15 -39 60 -59 100 -21 40 -43 80 -49 88 -39
48 -186 342 -186 372 0 5 -15 41 -34 81 -54 116 -263 739 -281 837 -3 19 -20
80 -36 135 -16 55 -38 129 -49 165 -10 36 -22 83 -26 105 -4 22 -13 57 -20 78
-7 21 -20 72 -29 115 -18 85 -136 339 -163 350 -9 3 -20 -2 -26 -12 -71 -120
-219 -279 -291 -312 -47 -23 -61 -24 -259 -24 -257 0 -255 -1 -407 150 -86 86
-113 120 -148 188 -24 46 -47 98 -53 115 -6 18 -13 122 -18 232 -7 199 -7 200
-39 264 -18 35 -49 109 -70 165 -21 55 -74 173 -119 261 -105 208 -169 348
-182 395 -6 22 -15 101 -20 177 -5 77 -17 165 -27 198 -16 54 -18 108 -18 540
-1 457 -2 483 -22 550 -12 39 -29 97 -38 130 -9 33 -24 85 -33 115 -13 43 -17
93 -16 230 1 174 12 249 31 205 14 -35 67 -105 79 -105 17 0 57 -93 69 -160 4
-19 13 -50 22 -69 14 -32 16 -33 27 -15 7 11 11 75 12 159 1 164 11 256 29
282 12 16 15 14 34 -29 11 -25 25 -64 31 -85 16 -54 60 -321 60 -361 0 -36 15
-72 30 -72 16 0 57 91 68 150 6 30 13 113 16 184 4 71 9 133 12 138 10 17 32
-12 60 -80 15 -37 34 -74 41 -83 7 -8 13 -20 13 -26 0 -19 73 -78 150 -120
118 -64 310 -274 310 -338 0 -17 -18 -30 -88 -64 -191 -93 -252 -144 -275
-226 -7 -28 -24 -68 -38 -90 -55 -90 -66 -158 -39 -247 12 -40 12 -56 1 -100
-7 -29 -19 -62 -26 -74 -7 -11 -19 -54 -26 -96 -12 -70 -11 -78 7 -109 11 -19
26 -54 34 -79 7 -25 17 -49 22 -54 13 -16 9 -43 -7 -50 -21 -8 -19 -53 3 -60
9 -4 30 -24 45 -46 31 -44 52 -53 44 -17 -4 12 -2 29 3 37 14 23 74 -10 90
-52 7 -18 20 -40 27 -50 13 -14 12 -20 -2 -42 -17 -25 -16 -27 14 -62 17 -19
62 -58 99 -86 37 -28 78 -61 92 -73 14 -12 50 -34 80 -48 44 -21 65 -39 104
-94 91 -126 98 -134 120 -143 11 -4 24 -6 28 -4 14 9 -26 110 -65 167 -23 33
-50 76 -61 96 -10 20 -37 59 -60 86 -60 71 -100 132 -152 231 -51 98 -51 97
-20 259 46 245 111 394 224 513 53 56 56 71 43 164 -6 40 -14 208 -17 373 -4
165 -7 345 -8 400 -1 55 4 271 11 480 8 209 16 439 18 510 2 72 7 146 10 165
3 19 12 163 20 320 23 437 38 524 136 835 69 218 111 305 227 470 51 72 101
141 113 155 12 13 28 39 37 57 23 49 50 52 84 12 16 -19 41 -51 55 -71 27 -40
41 -46 61 -26 18 18 14 47 -13 106 -23 49 -24 56 -11 86 8 19 19 37 25 40 6 4
11 38 11 82 0 93 20 135 90 194 57 48 64 80 20 90 -59 14 -16 72 70 95 62 16
82 31 60 46 -8 5 -28 9 -45 8 -48 -2 -55 0 -55 15 0 20 49 76 66 76 7 0 28 13
46 29 18 15 43 33 56 40 21 11 21 14 7 34 -23 33 -19 50 25 96 22 23 40 48 40
56 0 11 12 15 46 15 39 0 51 -5 75 -32 39 -41 34 -65 -18 -101 -49 -32 -54
-52 -18 -61 30 -8 45 -40 45 -97 0 -36 2 -40 23 -37 20 3 22 8 23 78 3 145 2
140 31 151 37 14 83 -10 122 -64 17 -23 38 -52 47 -65 31 -41 190 -192 235
-222 24 -16 60 -41 80 -54 26 -18 52 -26 90 -27 54 -2 202 16 219 26 5 3 51
13 102 21 113 19 262 66 343 107 74 38 294 183 355 234 73 61 224 222 270 286
20 29 76 132 101 187 130 285 301 585 333 585 7 0 68 -59 134 -131 113 -123
316 -305 372 -334 14 -7 -29 40 -96 106 -164 162 -263 299 -264 366 0 12 63
-11 85 -32 l21 -20 22 22 c20 20 25 21 73 10 59 -14 65 -12 48 16 -7 11 -9 27
-6 35 5 14 11 15 49 3 24 -8 90 -36 148 -63 58 -28 128 -57 155 -66 28 -9 84
-27 127 -41 42 -14 84 -26 95 -26 10 0 77 -21 148 -46 72 -25 157 -54 190 -64
33 -10 86 -30 119 -44 68 -31 152 -52 250 -62 52 -5 65 -9 51 -16 -11 -7 -83
-7 -203 -1 -220 12 -352 13 -352 3 0 -11 120 -49 193 -61 37 -6 67 -15 67 -21
0 -24 -78 -42 -207 -46 -73 -2 -133 -8 -133 -13 0 -11 59 -27 157 -41 186 -27
530 50 705 159 21 13 100 54 175 93 76 38 170 93 208 123 70 54 105 73 105 59
0 -5 -70 -79 -155 -167 -85 -87 -155 -164 -155 -171 0 -7 -9 -18 -19 -24 -11
-5 -26 -22 -33 -37 -7 -16 -25 -34 -41 -41 -15 -7 -32 -22 -37 -33 -9 -16 -7
-21 17 -30 29 -12 149 -1 258 22 28 6 68 12 90 14 22 2 60 11 84 19 49 18 101
21 101 6 0 -13 27 -13 32 -1 5 15 173 30 219 20 41 -10 89 -5 120 11 10 6 31
10 47 10 16 0 35 7 42 15 7 8 27 15 46 15 18 0 35 4 38 9 3 4 21 11 39 14 34
5 97 35 262 122 207 109 363 185 382 185 7 0 16 -7 19 -15 7 -18 31 -20 36 -3
3 8 14 7 38 -5 18 -9 47 -17 64 -17 32 -1 69 -25 78 -50 2 -8 22 -15 50 -16
40 -3 49 1 72 27 15 16 31 41 36 55 6 14 19 28 30 31 12 3 20 14 20 27 0 12 8
33 17 46 10 14 17 26 15 28 -6 6 0 20 17 39 10 11 21 29 23 39 2 15 16 21 66
27 51 7 62 12 62 28 0 16 7 19 45 19 45 0 45 0 45 -34 0 -34 1 -35 34 -29 32
5 34 3 41 -27 6 -27 11 -31 31 -27 18 3 24 0 24 -14 0 -11 7 -19 16 -19 14 0
16 -9 12 -51 -3 -29 -3 -60 0 -71 4 -18 13 -18 61 0 9 3 12 -1 9 -14 -2 -12
-11 -18 -23 -17 -11 1 -14 0 -7 -3 6 -3 12 -10 12 -16 0 -5 7 -16 15 -24 19
-20 19 -44 0 -44 -8 0 -15 -9 -15 -20 0 -12 -11 -31 -25 -44 -26 -24 -33 -46
-15 -46 6 0 10 -11 10 -24 0 -24 -24 -41 -42 -30 -6 4 -9 3 -6 -2 2 -5 10 -24
17 -41 7 -18 17 -33 22 -33 5 0 9 -13 9 -30 0 -20 5 -30 15 -30 12 0 15 -13
15 -55 0 -50 2 -55 25 -61 21 -5 25 -12 27 -48 1 -22 2 -61 3 -85 1 -25 7 -47
13 -49 15 -5 16 -52 2 -52 -5 0 -10 -13 -10 -30 0 -24 4 -30 21 -30 15 0 19
-4 15 -16 -7 -18 13 -84 26 -84 4 0 8 -7 8 -16 0 -8 5 -12 10 -9 14 8 13 -34
-2 -75 -9 -26 -9 -35 0 -38 7 -2 12 -10 12 -18 0 -8 4 -14 9 -14 21 0 41 -32
35 -56 -5 -19 -2 -24 14 -24 15 0 22 -9 27 -32 4 -17 17 -40 30 -52 12 -12 26
-32 30 -45 9 -30 36 -61 53 -61 10 0 12 -8 7 -29 -5 -24 -2 -33 14 -43 12 -7
21 -18 21 -25 0 -7 9 -13 19 -13 22 0 41 -42 22 -48 -6 -2 -11 -8 -11 -14 0
-13 26 -38 39 -38 6 0 11 -11 11 -25 0 -19 5 -25 21 -25 31 0 59 -18 59 -39 0
-15 14 -21 75 -31 42 -7 78 -17 81 -21 2 -4 11 -6 19 -3 8 4 29 -6 46 -20 17
-14 35 -26 40 -26 13 0 39 -25 39 -37 0 -5 -15 -14 -33 -21 -21 -8 -36 -22
-44 -41 -10 -28 -8 -33 28 -70 21 -22 39 -44 39 -50 0 -24 -34 -42 -74 -40
-62 3 -93 -9 -106 -41 -16 -38 -27 -41 -110 -31 -89 12 -129 5 -156 -24 -33
-35 -101 -63 -170 -68 -43 -3 -71 -12 -93 -28 -26 -19 -49 -24 -144 -30 -61
-4 -185 -8 -273 -8 -89 -1 -206 -5 -260 -10 -55 -6 -160 -13 -234 -16 -84 -4
-162 -13 -208 -25 -40 -11 -82 -20 -95 -20 -12 0 -31 -7 -41 -15 -11 -8 -31
-15 -46 -15 -34 0 -128 -35 -154 -57 -12 -10 -43 -34 -71 -52 -27 -19 -67 -53
-88 -75 -40 -42 -87 -132 -87 -166 0 -29 -21 -70 -37 -70 -7 0 -13 -7 -13 -15
0 -8 -7 -15 -15 -15 -8 0 -15 -7 -15 -15 0 -8 -13 -21 -29 -29 -16 -9 -42 -28
-58 -43 -16 -15 -49 -44 -73 -63 -102 -80 -160 -161 -160 -221 0 -10 -4 -19
-10 -19 -5 0 -10 -11 -10 -25 0 -14 -4 -25 -10 -25 -5 0 -10 -4 -10 -10 0 -16
-62 -145 -72 -148 -4 -2 -8 -9 -8 -15 0 -7 -7 -25 -16 -42 -15 -29 -23 -197
-13 -255 3 -14 8 -41 12 -60 5 -29 12 -122 32 -435 1 -16 5 -40 9 -53 8 -24
20 -651 18 -970 0 -127 -4 -198 -12 -207 -6 -7 -11 -33 -10 -57 1 -89 0 -105
-13 -173 -11 -57 -11 -88 0 -175 8 -58 15 -133 17 -168 2 -34 8 -68 14 -75 5
-6 13 -34 16 -60 4 -27 21 -90 38 -140 47 -144 69 -237 70 -304 0 -35 5 -63
10 -63 12 0 4 -27 -29 -107 -14 -35 -29 -63 -34 -63 -5 0 -9 -5 -9 -10 0 -6
-11 -28 -25 -50 -14 -22 -25 -48 -25 -57 -1 -10 -9 -36 -20 -58 -11 -22 -19
-46 -20 -52 0 -7 -4 -13 -9 -13 -14 0 -71 -123 -71 -153 0 -15 -10 -33 -24
-45 -14 -10 -28 -30 -31 -43 -6 -24 -41 -67 -82 -103 -21 -18 -24 -18 -58 -2
-23 11 -41 14 -52 8 -10 -5 -39 -12 -65 -15 -47 -6 -57 -12 -127 -73 -20 -17
-52 -34 -72 -38 -25 -4 -39 -14 -47 -31 -13 -28 -36 -32 -58 -10 -22 21 -44
19 -44 -5 0 -40 -47 -8 -52 35 -2 18 -9 29 -20 31 -24 3 -23 -27 2 -59 11 -14
20 -29 20 -34 0 -4 7 -20 14 -35 14 -26 13 -28 -3 -28 -18 0 -95 87 -159 180
-17 25 -41 57 -55 71 -13 14 -30 35 -36 47 -10 19 -9 22 7 22 11 0 25 -7 32
-15 17 -20 37 -19 49 4 12 22 -3 46 -83 129 -61 63 -82 66 -104 13 -20 -48
-46 -61 -116 -61 -30 0 -60 -6 -72 -15 -10 -8 -30 -15 -43 -15 -16 0 -21 -4
-17 -15 4 -11 -1 -15 -17 -15 -12 0 -49 -14 -82 -30 -33 -16 -72 -30 -86 -30
-14 0 -34 -9 -44 -20 -10 -11 -24 -20 -31 -20 -8 0 -19 -9 -26 -20 -7 -11 -18
-20 -24 -20 -20 0 -93 -82 -99 -111 -4 -15 -17 -35 -31 -44 -14 -9 -34 -36
-46 -60 -12 -24 -30 -46 -41 -49 -16 -4 -18 -10 -12 -38 33 -156 215 -294 421
-319 96 -12 155 0 228 48 37 24 38 27 33 69 -6 54 -30 84 -68 84 -30 0 -57 23
-90 77 -42 67 6 101 124 88 40 -4 106 -10 147 -15 75 -8 241 -61 258 -83 5 -7
12 -38 16 -70 3 -32 13 -71 20 -85 8 -15 64 -80 126 -144 107 -113 161 -155
337 -263 26 -16 100 -70 163 -121 63 -50 147 -111 185 -134 85 -52 263 -137
326 -156 26 -8 53 -21 60 -30 12 -14 5 -15 -72 -7 -142 14 -266 8 -344 -15
-158 -47 -326 -117 -487 -202 -52 -28 -71 -25 -130 20 -46 35 -59 40 -98 38
-38 -3 -47 -7 -58 -30 -12 -26 -16 -27 -68 -23 -42 3 -59 9 -73 26 -17 22 -21
22 -59 10 -35 -12 -43 -11 -71 5 -17 10 -31 24 -31 31 0 7 -9 13 -20 13 -11 0
-20 -4 -20 -10 0 -5 -7 -10 -16 -10 -9 0 -18 -9 -21 -20 -3 -11 -14 -20 -24
-20 -24 0 -24 9 -2 25 16 12 16 14 0 39 -22 33 -31 33 -63 -3 -14 -16 -45 -34
-69 -41 -25 -7 -50 -19 -56 -26 -6 -8 -17 -14 -24 -14 -14 0 -160 -74 -185
-93 -17 -14 -54 -32 -155 -77 -101 -45 -132 -62 -163 -88 -15 -13 -44 -32 -64
-43 -21 -10 -62 -39 -92 -64 -31 -25 -79 -52 -113 -63 -80 -26 -197 -117 -246
-189 -53 -79 -87 -148 -87 -177 0 -27 81 -131 109 -139 10 -2 36 6 57 19 46
28 92 30 150 8 41 -16 43 -15 137 20 53 20 105 36 117 36 11 0 47 11 79 25
100 42 163 63 291 98 86 23 142 29 284 28 144 -1 223 -10 306 -36 30 -9 80
-21 110 -27 30 -6 62 -17 71 -24 10 -9 40 -14 81 -14 62 0 128 -15 128 -29 0
-3 25 -25 55 -49 l54 -43 23 35 23 34 68 -5 c40 -4 97 -1 138 7 52 10 81 11
116 3 40 -10 53 -8 84 8 21 10 57 22 81 25 23 4 64 18 89 31 46 23 86 24 114
2 6 -4 38 -7 72 -8 83 0 137 -16 156 -45 15 -22 19 -23 63 -13 41 10 48 9 60
-8 8 -10 14 -42 14 -71 0 -84 -42 -98 -89 -29 -31 46 -46 34 -54 -42 -5 -50
-10 -60 -50 -97 -24 -23 -48 -48 -53 -56 -5 -8 -25 -23 -45 -33 -26 -13 -41
-31 -53 -59 l-16 -41 -60 6 c-56 6 -62 5 -88 -21 -68 -64 -128 -78 -254 -57
-38 6 -49 4 -53 -7 -6 -15 -29 -19 -107 -20 -46 -1 -110 20 -133 43 -16 16
-56 154 -48 163 8 7 5 115 -4 129 -11 19 -22 -24 -22 -96 -1 -103 -36 -154
-108 -161 -23 -3 -49 -9 -59 -14 -63 -32 -74 -36 -86 -24 -7 7 -19 12 -27 12
-8 0 -23 7 -33 16 -16 16 -18 16 -24 0 -7 -19 -30 -21 -37 -3 -4 9 -6 9 -6 0
-1 -10 -7 -10 -26 -1 -19 9 -28 9 -37 0 -7 -7 -22 -12 -33 -12 -12 0 -54 -11
-93 -24 -40 -14 -72 -21 -72 -17 0 9 -18 11 -77 11 -25 -1 -43 4 -43 10 0 14
-60 39 -79 33 -9 -3 -23 -7 -31 -10 -24 -8 -130 -11 -130 -4 0 4 5 12 12 19 9
9 5 12 -19 12 -17 0 -60 15 -95 33 -35 18 -74 34 -88 36 -13 1 -37 13 -52 25
-15 11 -41 31 -57 43 -16 13 -38 23 -48 23 -10 0 -24 5 -31 12 -6 6 -15 8 -19
3 -5 -4 -2 -10 5 -12 6 -3 12 -11 12 -18 0 -7 12 -21 28 -31 15 -10 59 -49 98
-88 156 -155 406 -336 463 -336 13 0 21 -6 21 -16 0 -41 -156 12 -268 90 -186
130 -320 190 -225 100 70 -66 102 -112 98 -142 -5 -40 -23 -82 -35 -82 -5 0
-10 -11 -10 -25 0 -14 -4 -33 -9 -43 -6 -9 -12 -29 -16 -44 -3 -16 -12 -28
-20 -28 -12 0 -15 -14 -15 -59 0 -36 -5 -61 -11 -63 -8 -3 -10 -16 -5 -41 4
-21 11 -35 16 -32 12 8 44 -41 35 -55 -14 -22 5 -47 37 -48 18 0 34 -6 36 -11
2 -6 16 -11 32 -11 16 0 41 -11 57 -24 23 -19 44 -24 113 -29 113 -9 266 -25
310 -33 76 -14 135 -11 379 18 96 11 147 6 296 -28 33 -7 103 -23 155 -34 283
-63 374 -90 565 -165 66 -26 131 -49 145 -52 14 -3 32 -12 40 -19 9 -7 36 -22
61 -33 41 -19 142 -91 194 -139 11 -11 28 -22 37 -25 10 -3 27 -27 39 -52 18
-38 21 -57 16 -110 -4 -36 -13 -77 -21 -93 -8 -16 -13 -32 -9 -35 9 -9 -6 -57
-18 -57 -14 0 -39 -26 -39 -39 0 -18 -75 -90 -111 -107 -59 -27 -89 -45 -89
-53 0 -4 -16 -13 -35 -21 -19 -8 -35 -19 -35 -26 0 -23 -30 -44 -54 -38 -14 3
-29 -1 -39 -10 -8 -9 -26 -16 -39 -16 -13 0 -33 -7 -45 -15 -19 -14 -113 -36
-268 -65 -38 -7 -80 -20 -92 -28 -15 -9 -34 -12 -57 -8 -20 4 -37 2 -41 -4 -9
-15 -113 -60 -139 -60 -31 0 -96 28 -96 41 0 5 -4 8 -9 5 -5 -3 -21 9 -36 27
-17 20 -29 27 -32 20 -3 -7 -14 -13 -24 -13 -11 0 -30 -11 -42 -23 -12 -13
-52 -34 -89 -46 -37 -13 -70 -27 -73 -32 -4 -5 -23 -9 -43 -9 -20 0 -51 -9
-68 -19 -17 -10 -68 -24 -114 -30 -46 -6 -89 -16 -94 -21 -6 -6 -34 -10 -63
-10 -29 0 -70 -7 -90 -15 -22 -8 -84 -16 -144 -18 -58 -2 -111 -7 -117 -11 -6
-4 -23 1 -37 10 -14 9 -32 13 -42 10 -9 -4 -20 -1 -25 6 -6 10 -8 10 -8 -1 0
-11 -3 -11 -15 -1 -12 10 -18 10 -30 0 -12 -10 -21 -10 -40 -2 -19 9 -33 8
-58 -2 -17 -8 -54 -19 -82 -25 -27 -7 -57 -19 -66 -27 -9 -8 -23 -12 -32 -8
-9 3 -23 -1 -32 -9 -17 -18 -20 -37 -5 -37 6 0 10 -9 10 -20 0 -11 9 -40 21
-65 13 -28 19 -54 15 -69 -7 -28 11 -76 34 -91 8 -5 26 -12 40 -15 19 -4 26
-12 28 -35 4 -34 29 -57 55 -49 11 4 17 0 17 -10 0 -11 9 -16 29 -16 15 0 63
-18 106 -41 69 -36 81 -39 105 -29 20 8 33 8 46 1 39 -22 110 -43 143 -42 18
1 39 -3 46 -9 9 -7 21 -7 39 1 21 10 35 9 68 -2 24 -8 80 -14 125 -14 54 0 83
-4 83 -11 0 -10 162 -18 303 -15 15 0 27 -4 27 -9 0 -14 19 -12 35 3 17 18
138 29 170 17 13 -5 81 -7 152 -3 70 3 144 6 163 5 100 -1 160 -8 160 -17 0
-21 368 -1 377 20 2 8 19 13 36 14 66 0 291 19 319 27 10 3 15 11 11 20 -4 10
2 14 20 14 14 0 28 -4 31 -9 7 -10 75 5 91 20 5 5 19 9 31 9 13 0 29 7 38 15
8 8 28 15 44 15 17 0 37 9 51 24 13 13 39 27 59 31 50 9 110 49 108 72 -1 13
7 19 29 21 22 2 38 14 58 42 15 21 27 43 27 48 0 5 11 13 24 16 14 3 26 16 30
31 4 14 11 25 16 25 6 0 10 8 10 18 0 22 22 72 33 72 4 0 7 7 7 15 0 8 6 12
13 9 10 -4 14 8 15 46 0 32 7 56 17 66 11 11 14 25 10 45 -5 23 0 37 24 66 17
21 31 43 31 50 0 7 4 13 9 13 5 0 13 10 17 22 4 12 28 43 55 69 26 25 54 62
63 82 8 20 20 37 27 37 15 0 49 39 49 57 0 8 4 12 10 8 5 -3 16 8 25 25 8 16
19 30 24 30 4 0 15 18 23 39 11 27 23 40 38 43 18 2 26 14 37 51 8 26 18 45
23 42 6 -4 10 -1 10 4 0 14 37 51 50 51 6 0 10 6 10 13 0 8 14 26 31 41 17 15
35 41 41 57 6 18 16 28 23 25 7 -2 17 6 24 20 6 13 17 24 26 24 11 0 15 11 15
39 0 30 7 46 35 75 19 21 35 46 35 57 0 10 7 19 15 19 8 0 15 5 15 10 0 11 10
24 43 61 9 10 17 28 17 39 0 11 4 20 8 20 12 0 52 35 52 45 0 4 -8 14 -17 21
-17 13 -17 13 0 14 9 0 17 7 17 15 0 8 11 22 25 31 14 9 25 23 25 30 0 8 5 14
12 14 6 0 9 3 6 6 -3 3 5 16 18 29 13 13 24 33 24 45 0 11 4 20 9 20 5 0 12
14 16 30 4 17 10 30 15 30 5 0 12 9 15 20 3 11 12 20 20 20 9 0 13 17 13 60 0
32 6 73 14 90 11 26 18 31 39 28 26 -4 26 -4 25 61 -1 43 3 66 12 68 6 3 12
11 12 19 0 8 7 14 15 14 8 0 17 12 20 28 3 15 11 44 17 64 6 20 8 55 5 77 -4
31 -1 43 11 50 13 8 14 12 3 25 -11 13 -10 18 2 31 9 8 20 15 26 15 6 0 11 10
11 23 0 13 4 27 9 33 8 8 16 83 12 127 0 9 -8 17 -17 17 -27 0 -10 23 26 35
41 14 46 25 26 64 -21 39 -21 38 19 33 26 -3 35 0 35 11 0 8 5 17 12 19 9 3 9
12 0 37 -10 29 -9 36 6 47 9 8 27 17 40 20 12 3 22 10 22 15 0 5 7 9 15 9 10
0 15 10 15 31 0 24 4 30 15 25 10 -4 15 1 15 14 0 12 9 22 23 26 32 7 87 67
87 94 0 26 18 62 36 73 8 5 14 25 14 46 0 31 4 40 22 44 12 4 28 1 35 -5 19
-16 43 8 43 43 0 17 5 29 13 29 19 0 47 57 47 96 0 35 4 37 51 34 20 -1 30 6
43 32 9 18 21 40 26 48 4 8 14 36 21 63 6 26 16 47 20 47 5 0 9 7 9 16 0 12 7
15 25 12 16 -3 25 -1 25 7 0 7 7 15 15 19 8 3 15 14 15 25 0 11 4 22 9 26 5 3
12 18 16 34 3 16 19 39 36 51 16 13 29 28 29 34 0 6 11 34 25 61 13 28 25 58
25 68 0 9 7 17 15 17 10 0 15 10 15 30 0 30 5 40 41 78 36 40 59 82 59 111 0
18 6 34 14 37 8 3 17 23 21 45 4 21 11 37 16 33 5 -3 10 4 10 15 3 51 37 125
61 136 16 7 25 26 35 68 7 31 22 67 33 79 11 12 20 30 20 40 0 10 5 18 10 18
6 0 10 10 10 23 0 13 7 32 15 43 8 10 15 25 15 32 0 7 9 25 19 40 11 15 22 44
26 65 3 20 11 37 17 37 6 0 9 3 5 6 -3 3 3 22 14 42 10 20 22 52 25 72 3 19
15 54 26 78 11 23 17 49 14 57 -3 8 -1 15 4 15 6 0 10 12 10 26 0 14 5 34 10
44 6 11 13 47 15 82 3 34 9 64 13 67 20 14 49 124 64 246 6 52 14 95 17 95 3
0 7 19 9 41 1 23 7 49 12 58 4 9 10 48 11 86 1 39 6 86 10 105 4 19 15 73 23
120 27 140 57 263 74 300 8 19 17 58 18 85 2 28 7 84 13 125 22 184 32 273 36
322 2 29 12 141 23 248 20 189 27 300 38 540 14 341 14 396 -5 545 -11 83 -20
157 -20 165 -4 64 -19 142 -29 152 -7 7 -12 22 -12 35 0 13 -4 23 -10 23 -5 0
-7 7 -4 15 4 9 0 15 -10 15 -9 0 -15 3 -14 8 8 33 -100 128 -165 145 -18 5
-36 12 -42 17 -5 5 -27 11 -47 15 -20 4 -39 13 -42 20 -2 7 -20 16 -38 20 -33
7 -88 55 -88 75 0 6 -4 9 -9 6 -16 -10 -61 34 -61 60 0 15 -6 24 -15 24 -8 0
-15 -7 -15 -16 0 -14 -7 -15 -40 -10 -39 6 -40 6 -40 -24 0 -16 -4 -30 -10
-30 -5 0 -10 -11 -10 -25 0 -14 5 -25 10 -25 17 0 11 -26 -10 -45 -11 -10 -20
-29 -20 -42 0 -14 -4 -21 -10 -18 -5 3 -10 1 -10 -4 0 -6 -8 -11 -18 -11 -12
0 -21 -11 -27 -32 -24 -81 -142 -45 -282 86 -50 46 -44 63 28 83 51 15 66 25
87 56 16 25 32 37 48 37 34 0 54 10 54 29 0 17 54 58 71 54 5 -2 9 1 9 6 0 13
27 21 45 15 8 -4 15 -17 15 -30 0 -20 5 -24 30 -24 29 0 30 1 30 50 0 33 -4
50 -12 50 -19 0 -21 68 -3 86 8 9 15 31 15 51 0 27 3 34 15 29 12 -4 14 1 9
32 -5 34 -3 40 25 61 17 13 31 32 31 42 0 10 5 21 10 24 6 3 10 19 10 36 0 16
4 37 9 47 5 9 13 35 18 57 10 48 34 57 69 24 38 -36 44 -14 24 81 -11 47 -19
101 -19 120 -1 20 -6 41 -13 48 -9 9 -6 12 15 12 16 0 38 -10 52 -24 14 -14
27 -20 30 -15 9 13 45 11 45 -3 0 -9 3 -9 12 0 7 7 22 12 33 12 15 0 25 10 35
35 9 22 19 34 27 31 7 -3 13 -2 13 3 0 14 51 31 76 25 18 -5 24 -2 24 10 0 9
5 16 11 16 6 0 9 8 7 18 -2 9 11 43 29 75 18 33 33 64 33 70 0 7 9 23 20 37
11 14 20 31 20 37 0 12 19 57 66 158 13 28 24 55 24 62 0 6 5 13 12 15 7 3 11
27 11 66 -1 34 3 62 8 62 5 0 13 8 16 18 7 18 45 78 63 100 6 6 9 12 6 12 -3
0 5 10 17 23 12 13 30 38 39 55 12 23 24 32 43 32 14 0 25 -4 25 -10 0 -16 47
-12 54 5 7 20 39 19 59 -3 24 -27 75 -145 117 -272 73 -221 81 -339 79 -1180
-2 -646 4 -898 31 -1265 20 -278 45 -894 44 -1083 -2 -204 -17 -372 -39 -431
-7 -20 -21 -79 -30 -131 -10 -52 -24 -110 -31 -129 -8 -18 -14 -46 -14 -62 0
-16 -9 -43 -20 -61 -11 -18 -20 -47 -20 -64 0 -17 -7 -53 -15 -80 -8 -27 -15
-62 -15 -78 0 -16 -5 -47 -11 -70 -34 -130 -67 -242 -79 -271 -5 -11 -14 -38
-20 -60 -6 -22 -16 -56 -21 -75 -6 -19 -12 -51 -15 -70 -2 -19 -11 -55 -19
-80 -8 -26 -18 -71 -24 -100 -5 -30 -11 -64 -14 -75 -3 -11 -8 -49 -11 -85
-10 -94 -33 -198 -72 -330 -37 -126 -42 -195 -18 -241 19 -38 13 -46 -23 -30
-27 12 -30 11 -68 -34 -41 -46 -65 -114 -65 -180 0 -16 -9 -58 -19 -94 -11
-36 -34 -129 -52 -206 -17 -77 -40 -176 -51 -220 -11 -44 -26 -107 -33 -140
-13 -67 -36 -146 -71 -250 -13 -38 -33 -110 -44 -160 -12 -49 -30 -106 -42
-125 -11 -19 -30 -51 -40 -70 -11 -19 -29 -45 -40 -57 -14 -15 -23 -46 -30
-100 -11 -88 -42 -185 -70 -223 -40 -52 -138 -208 -138 -218 0 -6 -27 -43 -60
-82 -72 -86 -105 -142 -115 -190 -4 -19 -15 -60 -25 -90 -11 -30 -26 -91 -34
-135 -12 -65 -19 -82 -41 -99 -15 -10 -46 -49 -69 -85 -69 -108 -559 -618
-782 -815 -49 -43 -114 -102 -144 -130 -30 -28 -78 -71 -105 -95 -28 -24 -81
-74 -120 -111 -104 -98 -356 -314 -470 -402 -249 -192 -461 -346 -571 -415
-43 -28 -101 -64 -129 -81 -61 -39 -348 -181 -430 -214 -186 -74 -476 -155
-690 -193 -49 -9 -99 -18 -110 -21 -43 -10 -581 -34 -775 -34 -548 0 -882 48
-1299 187 -241 80 -422 168 -679 331 -124 79 -395 275 -488 353 -48 41 -124
104 -168 140 -45 37 -116 97 -158 135 -42 38 -148 132 -234 209 -374 333 -480
436 -603 590 -53 66 -105 133 -115 149 -29 46 -97 116 -107 110 -5 -2 6 -26
24 -52 18 -26 48 -73 66 -105 18 -31 38 -63 44 -70 16 -17 33 -45 52 -82 17
-34 24 -46 82 -132 23 -34 43 -74 45 -90 2 -15 11 -34 21 -41 9 -7 17 -22 17
-32 0 -11 8 -24 18 -29 9 -5 26 -27 36 -48 11 -21 30 -52 43 -70 13 -17 23
-34 23 -37 0 -9 49 -77 85 -119 19 -22 35 -46 35 -53 0 -8 4 -14 8 -14 5 0 18
-18 31 -40 12 -22 26 -40 32 -40 5 0 9 -6 9 -12 0 -7 18 -33 40 -58 23 -25 59
-72 82 -105 22 -33 62 -85 88 -115 26 -30 57 -73 68 -95 34 -64 189 -230 252
-270 19 -12 41 -34 49 -49 8 -14 20 -26 27 -26 8 0 42 -29 77 -65 35 -36 69
-65 75 -65 7 0 12 -6 12 -14 0 -8 10 -23 23 -33 12 -10 30 -29 39 -42 21 -29
147 -131 164 -131 6 0 14 -6 17 -14 3 -7 21 -16 40 -20 19 -3 42 -15 52 -26
10 -11 23 -20 30 -20 17 0 96 -40 131 -66 17 -13 40 -24 51 -24 11 0 31 -8 44
-19 13 -10 44 -28 69 -40 59 -29 91 -49 137 -89 21 -18 67 -56 103 -83 102
-79 131 -102 166 -134 17 -16 67 -59 109 -95 43 -36 92 -78 109 -95 17 -16 54
-49 81 -73 265 -232 588 -573 643 -678 9 -18 11 -38 6 -63 -4 -20 -8 -42 -10
-50 -9 -47 -18 -62 -55 -100 -23 -22 -44 -41 -48 -41 -3 0 -16 -11 -28 -24
-19 -19 -23 -35 -22 -82 1 -82 18 -143 43 -159 11 -8 32 -31 45 -52 30 -49
139 -143 190 -165 21 -9 42 -21 46 -28 4 -6 25 -23 48 -37 23 -14 46 -32 50
-39 4 -8 17 -14 27 -14 11 0 20 -5 20 -11 0 -5 4 -8 8 -5 5 3 20 -6 34 -18 13
-13 38 -31 54 -39 16 -9 48 -33 70 -54 23 -21 64 -58 92 -82 28 -25 53 -53 56
-64 2 -10 14 -21 25 -24 12 -3 21 -8 21 -12 0 -4 8 -16 18 -27 10 -10 32 -40
50 -66 18 -27 37 -48 42 -48 5 0 16 -16 25 -35 10 -19 26 -37 38 -41 31 -10
94 -76 101 -106 8 -36 -13 -86 -53 -121 -19 -17 -31 -37 -31 -52 0 -14 -4 -25
-10 -25 -5 0 -10 -11 -10 -25 0 -25 1 -25 80 -25 78 0 80 -1 80 -24 0 -13 7
-26 15 -30 8 -3 14 -15 12 -28 -1 -14 4 -23 13 -24 36 -3 40 -5 40 -19 0 -8 7
-15 15 -15 8 0 15 7 15 15 0 26 16 16 39 -25 19 -34 26 -39 46 -34 14 3 31 0
40 -8 45 -37 75 -68 75 -78 0 -5 10 -10 22 -10 12 0 32 -12 45 -26 19 -22 34
-30 66 -33 4 -1 17 -12 29 -26 12 -14 27 -25 34 -25 6 0 17 -7 24 -15 7 -8 21
-15 31 -15 21 0 87 -39 129 -76 14 -12 54 -37 90 -56 75 -40 109 -58 130 -70
8 -4 21 -11 29 -15 8 -3 35 -26 60 -50 70 -67 166 -119 274 -149 92 -25 97
-28 108 -61 l11 -34 76 7 c153 14 428 108 938 322 163 68 482 223 558 270 33
21 90 53 126 71 154 79 422 260 680 460 444 345 850 890 983 1321 93 302 110
475 67 669 -14 61 -62 175 -79 185 -6 4 -11 15 -11 26 0 10 -19 38 -42 63 -35
37 -60 51 -128 76 -47 16 -119 37 -160 46 -41 9 -92 20 -113 26 -74 20 -76
-13 -4 -107 28 -38 88 -114 132 -169 44 -55 92 -121 107 -146 27 -45 55 -135
46 -145 -3 -2 -17 0 -32 5 -23 9 -27 7 -41 -19 -16 -31 -20 -33 -107 -50 -51
-10 -60 -9 -82 7 -14 10 -26 21 -26 26 0 4 -7 7 -15 7 -8 0 -15 6 -15 13 0 7
-11 23 -25 35 -13 12 -33 39 -45 62 -11 22 -25 40 -30 40 -6 0 -10 8 -10 19 0
10 -7 24 -15 31 -8 7 -15 20 -15 29 0 9 -4 21 -9 27 -5 5 -17 36 -26 69 -10
33 -27 70 -36 83 -10 13 -15 30 -13 37 3 8 -6 30 -21 49 -23 30 -25 37 -13 55
10 17 10 25 1 39 -13 18 -32 57 -52 105 -6 15 -11 50 -11 77 0 27 -5 52 -11
55 -6 4 -8 13 -5 21 3 7 -7 34 -21 59 -24 43 -25 50 -13 86 10 28 10 42 2 52
-12 14 -19 256 -9 296 8 31 13 35 32 27 24 -9 32 -44 23 -105 -7 -51 -3 -162
8 -203 3 -9 18 -21 35 -27 16 -5 32 -18 35 -28 3 -10 12 -34 21 -53 10 -23 15
-65 14 -129 -1 -107 2 -113 64 -105 26 4 66 -2 115 -16 41 -12 104 -31 140
-41 36 -11 79 -22 95 -25 61 -12 300 -98 333 -120 18 -13 43 -26 55 -30 46
-14 177 -129 316 -274 171 -180 206 -202 351 -219 52 -7 127 -20 166 -31 39
-10 106 -23 149 -30 97 -15 197 -60 295 -134 41 -31 107 -72 145 -90 326 -157
478 -233 522 -262 28 -19 56 -34 61 -34 5 0 15 -7 23 -16 15 -18 193 -154 202
-154 23 0 233 -128 337 -204 261 -193 306 -224 358 -250 29 -15 74 -42 100
-60 26 -18 74 -48 107 -66 33 -18 74 -43 91 -56 17 -13 89 -53 160 -90 71 -36
145 -79 164 -94 20 -15 53 -36 75 -47 59 -29 115 -62 149 -88 17 -12 76 -46
131 -75 225 -119 251 -133 300 -164 27 -18 77 -48 110 -66 33 -18 76 -45 95
-59 19 -14 69 -43 110 -64 41 -21 86 -49 100 -61 14 -13 66 -43 115 -68 113
-55 184 -96 210 -119 11 -10 83 -50 160 -89 76 -39 154 -85 172 -101 19 -16
38 -29 44 -29 12 0 117 -62 165 -97 17 -13 34 -23 39 -23 12 0 128 -71 155
-95 14 -13 45 -32 70 -44 55 -25 106 -55 128 -74 9 -7 58 -38 107 -66 101 -59
146 -88 190 -123 17 -14 62 -42 100 -63 39 -21 84 -49 100 -62 17 -13 50 -40
75 -60 25 -20 65 -45 90 -56 25 -11 63 -34 85 -52 22 -17 74 -51 115 -75 97
-57 140 -89 140 -105 0 -7 30 -35 68 -61 436 -309 967 -746 1432 -1180 1478
-1379 2475 -2852 2910 -4300 93 -308 180 -710 206 -952 4 -34 10 -64 14 -67 6
-4 763 372 910 452 30 16 84 46 120 65 65 36 150 82 225 123 22 12 58 32 80
45 22 12 69 39 105 58 36 19 82 46 103 59 21 13 53 32 70 42 27 15 64 36 165
96 10 6 55 33 101 60 45 28 97 58 114 69 18 10 100 61 182 113 83 51 159 99
170 106 11 7 164 107 340 223 1752 1153 3346 2578 4706 4209 1420 1702 2565
3598 3404 5637 592 1437 1026 2933 1299 4483 37 205 109 673 122 780 3 33 9
64 12 70 4 5 5 22 3 37 -1 14 3 29 9 33 5 3 8 11 4 16 -6 10 13 193 23 219 3
8 5 30 4 47 -2 18 1 37 4 43 4 6 9 48 12 93 2 44 7 85 10 90 3 5 6 30 7 55 4
86 38 447 44 462 3 8 4 19 3 24 -3 13 20 368 25 384 2 8 6 71 9 140 3 70 10
215 17 322 12 213 19 1769 8 1785 -4 6 -11 93 -14 195 -14 357 -16 388 -20
401 -4 15 -38 469 -42 561 -1 31 -5 62 -9 67 -3 6 -6 30 -6 53 0 24 -3 68 -6
98 -3 30 -6 74 -8 96 -1 23 -6 47 -9 53 -4 6 -6 26 -5 44 2 18 0 38 -5 45 -4
7 -6 27 -5 45 2 18 0 38 -4 44 -4 7 -8 27 -8 45 0 48 -6 111 -12 128 -3 8 -22
139 -42 290 -343 2554 -1187 5115 -2441 7406 -1639 2996 -3956 5559 -6779
7501 -202 139 -403 273 -409 273 -2 0 -40 25 -84 55 -44 30 -83 55 -87 55 -3
0 -21 11 -38 24 -18 14 -43 31 -57 38 -14 8 -58 35 -98 61 -40 26 -75 47 -78
47 -3 0 -20 11 -37 24 -18 13 -51 34 -74 47 -23 13 -122 72 -220 131 -98 58
-195 116 -215 127 -21 12 -54 30 -73 41 -19 11 -52 29 -72 41 -21 12 -42 24
-48 29 -5 4 -41 24 -78 44 -37 20 -84 46 -105 58 -44 24 -127 70 -234 127 -43
22 -113 60 -155 83 -135 72 -742 373 -903 448 -85 40 -187 87 -226 105 -222
104 -746 325 -1044 442 -91 35 -185 72 -210 83 -68 28 -603 220 -790 283 -289
98 -682 220 -1025 317 -60 17 -117 34 -125 37 -8 3 -19 7 -25 7 -22 3 -81 19
-90 24 -5 4 -14 7 -20 7 -22 1 -121 28 -131 36 -6 5 -14 6 -17 3 -3 -3 -12 -2
-19 2 -7 4 -19 9 -28 9 -17 2 -307 74 -330 83 -8 3 -19 4 -24 3 -4 -1 -14 3
-20 9 -7 5 -16 7 -19 4 -3 -3 -12 -2 -19 2 -7 5 -17 9 -23 9 -39 3 -106 19
-111 26 -3 5 -9 7 -13 4 -5 -2 -23 0 -42 6 -19 5 -47 12 -63 14 -15 2 -38 8
-50 11 -11 4 -28 8 -36 9 -27 3 -135 26 -150 32 -8 3 -26 7 -40 9 -14 2 -36 6
-50 10 -14 4 -34 8 -45 9 -11 2 -112 21 -225 44 -237 46 -616 114 -740 131
-47 7 -90 16 -96 21 -6 5 -13 6 -17 3 -5 -6 -149 13 -177 23 -8 3 -27 5 -42 4
-14 -1 -29 3 -33 9 -3 5 -10 8 -15 5 -10 -6 -174 13 -200 23 -8 3 -18 5 -22 4
-4 -1 -119 11 -255 28 -136 16 -304 34 -373 40 -69 7 -132 14 -140 17 -8 4
-21 5 -28 4 -6 -1 -119 7 -250 18 -130 11 -293 23 -362 26 -69 4 -131 8 -138
11 -15 4 -97 8 -457 19 -121 4 -227 9 -234 11 -25 8 -1212 9 -1224 2z m-8618
-10573 c-3 -2 -117 -60 -254 -129 -320 -159 -611 -330 -796 -468 -42 -31 -135
-114 -205 -184 -123 -123 -129 -119 -20 11 64 76 81 92 167 161 60 48 210 144
224 144 7 0 106 69 130 91 11 10 72 52 135 94 134 89 316 181 455 228 55 19
111 39 125 45 26 11 46 15 39 7z m61 -125 c13 -8 13 -9 0 -13 -27 -8 -134 -39
-165 -47 -53 -15 -95 -22 -95 -16 0 17 116 64 185 75 28 5 52 9 55 10 3 0 12
-3 20 -9z m-920 -176 c-8 -8 -23 -20 -34 -25 -13 -6 -10 0 9 15 34 29 43 33
25 10z m502 -675 c29 -5 69 -16 88 -23 19 -8 55 -20 80 -26 25 -7 96 -37 159
-67 62 -29 117 -53 121 -53 4 0 13 -7 20 -15 18 -21 -2 -19 -50 5 -22 11 -44
20 -50 20 -6 0 -38 13 -73 29 -110 52 -210 88 -289 106 -43 9 -78 21 -78 26 0
11 7 11 72 -2z m-3392 -451 c-1 -7 -16 -31 -35 -53 -26 -30 -35 -35 -35 -22 0
20 47 87 61 87 5 0 9 -6 9 -12z m3345 -1587 c10 -18 209 -167 273 -205 71 -43
190 -148 174 -154 -14 -4 -108 48 -202 112 -73 50 -270 230 -270 247 0 12 17
11 25 0z m445 -144 c107 -55 204 -108 215 -118 19 -19 19 -19 -10 -19 -56 0
-183 50 -265 105 -127 86 -207 158 -152 138 9 -4 105 -51 212 -106z m-749 -54
c20 -21 66 -78 104 -126 37 -49 101 -122 141 -164 41 -41 74 -77 74 -80 0 -11
-49 13 -96 48 -64 47 -119 109 -169 191 -22 35 -58 88 -82 120 -24 31 -43 59
-43 62 0 13 35 -13 71 -51z m-1566 -14 c44 -17 85 -35 90 -39 6 -4 28 -13 50
-20 66 -21 67 -33 2 -26 -69 8 -166 43 -233 85 -48 30 -48 31 -19 31 17 0 66
-14 110 -31z m1850 -113 c106 -72 197 -158 172 -164 -25 -5 -90 35 -183 116
-129 112 -123 138 11 48z m-1570 24 c7 -12 -12 -12 -40 0 -18 8 -17 9 7 9 15
1 30 -3 33 -9z m-865 -20 c0 -5 -4 -10 -9 -10 -6 0 -13 5 -16 10 -3 6 1 10 9
10 9 0 16 -4 16 -10z m160 -105 c36 -25 71 -45 79 -45 17 0 138 -127 147 -153
15 -48 -26 -25 -127 69 -36 34 -84 71 -105 82 -42 22 -134 106 -134 123 0 12
54 -18 140 -76z m426 34 c36 -17 63 -34 60 -37 -3 -2 -25 4 -48 15 -24 11 -53
24 -65 27 -13 4 -23 12 -23 17 0 13 5 12 76 -22z m-223 -39 c31 -11 71 -29 89
-40 18 -11 41 -20 50 -20 9 0 21 -7 25 -15 5 -8 32 -19 60 -25 29 -5 103 -34
165 -63 62 -30 124 -57 138 -60 39 -9 163 -80 168 -96 6 -18 -64 -6 -122 20
-23 10 -53 19 -67 19 -31 0 -199 59 -255 89 -21 12 -47 21 -57 21 -23 0 -106
42 -143 73 -16 13 -48 34 -70 45 -38 19 -61 52 -46 66 7 7 -1 9 65 -14z m1616
-106 c66 -72 65 -89 -1 -32 -63 54 -88 88 -65 88 8 0 38 -25 66 -56z m9971
-310 c-30 -70 -150 -255 -161 -248 -5 3 -1 20 10 37 11 18 35 59 54 92 74 128
111 187 114 178 2 -6 -6 -32 -17 -59z m-7640 -1542 c0 -21 -137 -69 -280 -97
-47 -9 -103 -21 -125 -25 -110 -24 -392 -23 -368 1 5 5 92 14 194 19 121 6
215 17 274 31 50 11 106 24 125 29 19 4 55 17 80 28 46 21 100 28 100 14z
m-945 -103 c19 -8 19 -8 -1 -8 -37 -1 -84 11 -78 20 5 9 40 4 79 -12z m363
-156 c-16 -2 -40 -2 -55 0 -16 2 -3 4 27 4 30 0 43 -2 28 -4z m1912 -128 c0
-9 -11 -20 -24 -26 -25 -12 -36 -35 -36 -78 0 -20 -4 -22 -25 -17 -20 5 -25 3
-25 -14 0 -11 -6 -20 -13 -20 -7 0 -20 -8 -28 -19 -9 -10 -35 -21 -58 -25 -22
-3 -41 -11 -41 -16 0 -6 -5 -10 -11 -10 -16 0 -39 26 -39 45 0 12 4 14 19 5
31 -16 41 -12 41 19 0 38 45 84 74 75 12 -4 23 -11 24 -15 2 -5 10 -9 18 -9
10 0 14 12 14 38 0 34 3 39 35 51 19 7 35 17 35 22 0 5 9 9 20 9 11 0 20 -7
20 -15z m-5676 -661 c40 -15 1 -93 -46 -95 -13 0 -45 -2 -73 -3 -27 -1 -61 -5
-75 -9 -34 -10 -59 7 -44 30 8 12 33 21 83 29 44 7 82 19 99 32 30 23 34 24
56 16z m7646 -2227 c24 -8 35 -18 35 -31 0 -12 9 -22 25 -26 14 -4 41 -15 60
-26 19 -10 40 -19 45 -20 17 -1 85 -37 85 -45 0 -4 15 -17 34 -28 37 -23 65
-79 45 -92 -6 -4 -8 -16 -4 -28 6 -20 -2 -26 -27 -22 -5 0 -8 -6 -8 -14 0 -8
-11 -17 -24 -21 -16 -4 -27 -15 -31 -33 -3 -15 -16 -38 -28 -53 -73 -85 -77
-92 -77 -135 0 -24 3 -43 8 -43 8 0 52 -92 52 -109 0 -7 -13 -17 -30 -22 -37
-13 -37 -21 -4 -54 20 -20 23 -29 15 -39 -9 -10 -8 -15 4 -20 9 -3 13 -11 10
-17 -5 -7 -49 -9 -144 -4 -399 19 -723 3 -870 -45 -35 -11 -68 -20 -73 -20 -5
0 -46 -17 -91 -37 -80 -36 -156 -85 -226 -146 -34 -29 -178 -196 -214 -247
-10 -14 -29 -40 -42 -59 -31 -42 -34 -67 -6 -50 19 12 51 6 51 -9 0 -5 -10
-20 -21 -33 -25 -29 -107 -199 -136 -284 -40 -119 -56 -175 -50 -181 3 -3 28
12 56 34 109 87 172 101 446 102 140 0 187 -4 268 -22 92 -21 100 -21 111 -6
11 15 19 14 97 -17 46 -18 145 -45 219 -60 119 -24 150 -27 258 -22 70 3 122
2 122 -3 0 -16 -42 -49 -74 -59 -60 -19 -190 -31 -341 -31 -116 0 -162 -4
-190 -16 -21 -8 -48 -13 -61 -10 -26 7 -56 -2 -49 -14 10 -16 -7 -40 -28 -40
-11 0 -28 7 -38 16 -15 14 -21 14 -53 0 -30 -12 -37 -13 -43 -1 -11 20 -150
47 -174 35 -10 -6 -38 -9 -61 -8 -33 2 -43 -1 -43 -12 0 -8 10 -19 23 -25 12
-5 22 -13 22 -17 0 -4 14 -15 32 -24 18 -9 41 -27 51 -40 10 -13 24 -24 30
-24 7 0 37 -20 67 -45 30 -25 60 -45 66 -45 5 0 19 -8 30 -18 10 -10 37 -27
59 -38 98 -51 112 -59 140 -87 17 -15 57 -41 90 -57 33 -15 89 -44 123 -64 35
-20 74 -36 86 -36 12 0 27 -5 32 -10 11 -11 79 -26 179 -39 33 -4 70 -11 82
-15 12 -4 44 -11 70 -16 53 -9 69 -13 134 -30 24 -6 62 -16 84 -22 22 -6 47
-13 55 -16 8 -2 33 -6 54 -7 22 0 42 -7 44 -13 2 -7 22 -12 45 -12 43 0 126
-32 139 -53 4 -6 25 -11 48 -11 35 1 41 -2 46 -23 7 -27 32 -43 67 -43 26 0
80 -43 69 -56 -4 -4 0 -5 10 -1 17 6 48 -21 48 -41 0 -7 9 -12 20 -12 11 0 20
-6 20 -14 0 -8 4 -16 8 -18 21 -8 79 -117 85 -157 3 -24 17 -66 31 -93 14 -27
26 -58 26 -69 0 -10 5 -19 10 -19 15 0 12 -36 -4 -52 -7 -8 -16 -29 -20 -48
-4 -19 -9 -48 -13 -65 -3 -16 -12 -34 -18 -40 -7 -5 -20 -39 -29 -73 -8 -35
-21 -70 -27 -79 -7 -8 -18 -35 -25 -61 -6 -26 -17 -46 -23 -45 -6 2 -11 -10
-11 -27 0 -16 -6 -33 -14 -37 -20 -12 -36 -48 -36 -84 0 -27 -2 -30 -15 -19
-13 10 -15 9 -15 -9 0 -11 -6 -21 -14 -21 -7 0 -16 -12 -19 -27 -7 -33 -44
-76 -58 -68 -5 4 -9 -9 -9 -28 0 -22 -8 -43 -25 -61 -14 -15 -25 -36 -25 -47
0 -10 -5 -19 -10 -19 -6 0 -15 -11 -20 -25 -5 -14 -14 -25 -20 -25 -5 0 -10
-7 -10 -15 0 -8 -4 -15 -9 -15 -5 0 -15 -16 -21 -35 -6 -19 -18 -35 -26 -35
-8 0 -14 -3 -14 -8 0 -4 -10 -12 -22 -17 -13 -6 -24 -20 -26 -33 -2 -13 -10
-26 -18 -29 -8 -3 -14 -11 -14 -19 0 -8 -7 -14 -15 -14 -9 0 -15 -9 -15 -21 0
-12 -11 -32 -25 -45 -14 -13 -25 -33 -25 -44 0 -12 -4 -18 -10 -15 -5 3 -10
-1 -10 -9 0 -27 -35 -86 -51 -86 -25 0 -52 -36 -46 -61 6 -22 -2 -35 -40 -71
-13 -12 -23 -30 -23 -39 0 -21 -22 -38 -28 -21 -5 17 -22 15 -22 -3 0 -8 6
-15 13 -16 8 0 8 -2 1 -5 -6 -3 -9 -15 -7 -28 6 -30 -32 -76 -64 -76 -13 0
-23 -4 -23 -10 0 -5 5 -10 11 -10 6 0 -1 -21 -16 -46 -22 -37 -25 -51 -17 -69
11 -24 5 -38 -20 -48 -10 -3 -18 -15 -18 -26 0 -10 -7 -21 -15 -25 -8 -3 -15
-12 -15 -21 0 -8 -4 -15 -10 -15 -5 0 -10 -11 -10 -25 0 -14 -4 -25 -10 -25
-5 0 -10 -5 -10 -11 0 -6 -7 -17 -16 -26 -8 -9 -13 -22 -10 -29 3 -7 1 -16 -4
-19 -6 -4 -10 0 -10 7 -1 7 -7 -2 -15 -19 -8 -18 -19 -38 -25 -45 -21 -26 -60
-89 -60 -98 0 -6 -4 -10 -9 -10 -5 0 -12 -11 -15 -24 -4 -17 -15 -26 -36 -31
-16 -4 -30 -11 -30 -16 0 -5 -7 -9 -15 -9 -8 0 -15 -7 -15 -15 0 -22 -48 -11
-73 16 -13 14 -22 18 -25 11 -2 -7 -19 -12 -38 -12 -26 0 -41 8 -64 33 -16 17
-30 37 -30 43 0 6 -7 17 -15 24 -8 7 -15 22 -15 34 0 12 -7 32 -16 44 -8 12
-61 113 -118 225 -56 111 -119 229 -141 262 -38 59 -164 228 -235 315 -34 41
-114 158 -227 331 -49 74 -131 245 -162 338 -44 129 -64 246 -76 436 -9 152
-12 194 -25 275 -6 41 -15 100 -20 130 -14 96 -35 172 -47 177 -7 3 -13 13
-13 22 0 10 -3 21 -7 25 -5 4 -9 20 -10 34 -4 55 -15 102 -24 102 -5 0 -9 24
-9 54 0 37 -5 60 -16 71 -9 8 -13 22 -10 31 3 8 -3 41 -13 72 -11 32 -17 69
-14 85 4 20 2 27 -8 25 -16 -4 -46 129 -51 222 -2 53 -7 69 -26 87 -27 27 -42
114 -23 137 7 8 9 25 6 38 -11 47 -13 124 -3 173 13 70 70 235 80 235 4 0 8
11 8 24 0 14 4 27 9 31 5 3 17 31 26 63 9 31 27 76 41 99 13 23 24 53 24 66 0
14 7 30 15 37 8 7 15 25 15 41 0 29 17 68 34 81 6 3 11 20 12 37 1 16 14 45
28 64 14 19 26 45 26 58 0 24 51 122 70 134 5 3 10 14 10 24 0 10 10 29 23 42
12 14 29 38 37 54 30 58 35 65 42 65 5 0 8 7 8 16 0 9 11 29 25 46 14 16 25
36 25 44 0 8 4 14 10 14 5 0 16 15 23 33 8 18 28 46 46 62 17 17 31 34 31 39
0 19 169 206 187 206 7 0 16 6 20 13 8 14 195 117 211 117 5 0 27 7 48 17 22
9 80 31 129 48 50 18 135 48 190 68 111 40 163 54 246 67 30 5 66 14 80 19 33
13 107 12 149 -2z m-10020 -757 c22 -11 46 -20 54 -20 31 0 154 -115 336 -315
30 -33 65 -67 77 -75 12 -9 35 -34 51 -55 16 -22 53 -65 83 -95 103 -104 181
-225 224 -349 13 -36 42 -115 65 -175 39 -102 43 -120 52 -255 20 -305 20
-333 10 -343 -14 -14 -56 45 -77 110 -22 69 -82 147 -231 301 -128 132 -138
143 -219 219 -54 52 -158 174 -215 252 -220 303 -315 398 -441 440 -60 21 -83
17 -98 -16 -21 -46 -38 -29 -46 44 -5 55 -3 75 13 112 23 54 150 193 201 220
47 25 112 25 161 0z m14180 -160 c11 -22 20 -47 20 -56 0 -9 -103 -118 -229
-243 -211 -208 -299 -309 -515 -586 -41 -53 -206 -296 -278 -410 -14 -22 -53
-94 -88 -160 -106 -202 -179 -331 -200 -350 -19 -17 -20 -17 -20 1 0 47 17 89
136 341 19 39 34 74 34 78 0 3 11 31 25 61 14 30 25 66 25 79 0 14 8 29 20 35
15 8 17 15 11 33 -6 17 -7 94 -2 150 1 4 9 7 19 7 10 0 26 14 36 31 15 26 16
33 5 40 -11 7 -11 9 3 9 24 0 48 -11 48 -22 0 -5 -9 -27 -19 -48 -12 -25 -15
-42 -9 -46 11 -7 10 -8 72 68 25 32 46 62 46 68 0 5 6 10 13 10 6 0 32 31 57
68 24 37 58 83 75 102 16 20 38 47 47 60 84 120 161 222 198 264 25 28 64 76
87 106 22 30 71 86 107 125 36 38 66 75 66 82 0 15 81 93 97 93 6 0 20 11 30
23 19 25 43 37 56 30 4 -2 16 -22 27 -43z m-4431 -10 c147 -16 381 -78 381
-101 0 -5 -36 -9 -80 -9 -70 0 -81 -2 -90 -21 -7 -11 -14 -19 -16 -16 -3 3
-33 -2 -67 -9 -34 -8 -82 -15 -107 -15 -25 0 -65 -6 -90 -14 -85 -26 -286 -56
-355 -55 -101 3 -195 -10 -231 -31 -17 -11 -39 -19 -48 -19 -9 0 -47 -15 -84
-34 -37 -18 -78 -37 -92 -41 -14 -4 -47 -21 -73 -37 -26 -17 -50 -28 -53 -25
-9 9 179 188 258 246 141 102 220 143 341 176 62 16 271 19 406 5z m1158 -344
c21 -8 70 -24 108 -35 83 -24 161 -83 135 -101 -53 -35 -272 37 -309 102 -9
16 -19 28 -23 28 -5 0 -8 5 -8 10 0 15 54 12 97 -4z m-1417 -96 c21 -39 -15
-70 -98 -84 -78 -13 -96 42 -27 81 51 29 110 31 125 3z m-376 -87 c-16 -98 -1
-147 90 -293 59 -95 59 -105 1 -80 -24 10 -64 24 -87 30 -80 22 -297 113 -303
128 -3 8 2 27 12 41 45 69 232 221 272 221 22 0 23 -2 15 -47z m1312 -38 c12
-16 9 -24 -21 -61 -19 -23 -35 -47 -35 -54 0 -13 -79 -120 -90 -120 -4 0 -29
-27 -55 -60 -42 -53 -99 -100 -119 -100 -4 0 12 25 34 55 83 113 133 270 111
351 -17 61 -3 67 86 34 42 -15 82 -35 89 -45z m3370 -165 c3 -152 14 -341 24
-395 5 -27 16 -102 25 -165 9 -63 25 -158 35 -210 23 -120 45 -537 37 -714 -4
-83 -13 -156 -26 -201 -38 -137 -60 -211 -81 -267 -11 -32 -20 -65 -20 -75 -1
-60 -87 -165 -173 -210 -39 -20 -77 -29 -77 -18 0 18 45 85 70 103 16 12 47
57 70 103 23 45 52 96 65 113 30 40 82 153 107 236 35 114 34 656 -2 781 -7
26 -19 40 -45 52 -46 22 -52 39 -30 87 19 43 18 138 -4 380 -11 113 -15 272
-12 413 2 77 4 88 19 85 14 -3 17 -17 18 -98z m-2576 -43 c0 -7 -23 -33 -51
-57 -76 -66 -89 -74 -101 -62 -19 19 15 65 72 98 60 36 80 41 80 21z m-340
-102 c0 -13 -12 -50 -27 -82 -18 -39 -29 -82 -32 -132 -5 -65 -9 -76 -33 -94
-17 -12 -44 -21 -70 -21 -41 -1 -43 0 -41 28 1 16 14 45 28 65 68 95 125 187
125 201 0 19 28 60 41 60 5 0 9 -11 9 -25z m105 -164 c-14 -29 -35 -34 -35
-10 0 12 40 52 47 46 2 -3 -3 -19 -12 -36z m1937 -1108 c68 -73 105 -384 64
-540 -17 -66 -69 -188 -90 -213 -8 -8 -26 -37 -41 -65 -15 -27 -47 -78 -71
-112 -67 -93 -83 -98 -59 -15 20 68 53 137 92 192 60 87 109 232 118 351 8 88
-11 243 -40 343 -26 88 -18 106 27 59z m-12472 -533 c0 -5 -5 -10 -11 -10 -5
0 -7 5 -4 10 3 6 8 10 11 10 2 0 4 -4 4 -10z m12790 -525 c0 -8 -13 -36 -30
-62 -16 -26 -30 -51 -30 -55 0 -5 -11 -21 -24 -35 -27 -28 -50 -104 -41 -132
3 -10 32 -39 64 -64 55 -42 154 -167 132 -167 -5 0 -42 31 -82 68 -87 80 -238
184 -293 202 -33 11 -47 10 -95 -5 -79 -25 -100 -35 -135 -64 -26 -22 -27 -9
-6 49 26 72 33 77 73 61 58 -24 84 -25 113 -2 15 12 30 21 35 21 16 0 130 74
147 95 16 20 70 59 126 92 28 17 46 16 46 -2z m-5325 -46 c17 -10 51 -29 76
-43 25 -13 52 -32 60 -42 8 -9 38 -34 66 -56 50 -36 102 -98 152 -180 23 -39
42 -127 34 -159 -10 -38 -52 -14 -92 53 -18 28 -68 73 -138 123 -26 19 -84 42
-198 81 -132 44 -139 48 -148 81 -14 46 -1 97 35 137 30 34 34 36 77 30 25 -3
60 -14 76 -25z m5503 -576 c38 -36 53 -59 60 -89 13 -58 -3 -318 -23 -379 -9
-27 -20 -81 -25 -119 -22 -171 -155 -276 -459 -361 -65 -19 -132 -9 -215 30
-56 26 -76 56 -76 111 0 13 -4 26 -10 29 -5 3 -9 16 -9 28 0 12 -7 47 -17 79
-19 65 -15 85 21 94 22 5 34 0 68 -34 78 -74 190 -162 215 -169 20 -5 29 -1
36 13 17 30 85 94 101 94 8 0 15 4 15 8 0 5 15 29 34 53 18 24 39 60 47 80 35
89 126 145 145 87 6 -19 7 -19 16 -4 19 35 58 211 58 265 0 48 -22 154 -45
214 -12 29 9 19 63 -30z m-6146 -95 c-7 -7 -12 -8 -12 -2 0 14 12 26 19 19 2
-3 -1 -11 -7 -17z m592 -1312 c107 -39 277 -122 345 -169 125 -85 219 -165
237 -199 25 -48 -13 -34 -137 52 -207 144 -297 199 -431 264 -82 39 -148 74
-148 79 0 15 41 6 134 -27z m924 -1078 c-6 -16 -202 -190 -240 -213 -51 -30
-31 5 45 78 39 39 94 88 120 109 48 38 82 50 75 26z m-3188 -828 c0 -11 -4
-20 -10 -20 -5 0 -10 9 -10 20 0 11 5 20 10 20 6 0 10 -9 10 -20z m5632 -942
c10 -17 12 -84 11 -273 -3 -275 -10 -393 -24 -360 -4 11 -8 48 -8 81 -1 34 -8
78 -16 98 -18 44 -29 442 -12 464 15 19 35 14 49 -10z m64 -895 c4 -15 3 -108
-1 -207 -5 -100 -10 -216 -11 -259 0 -43 -5 -82 -10 -87 -5 -5 -9 65 -9 168
-1 97 -7 227 -14 289 -8 62 -11 119 -7 128 8 23 44 2 52 -32z m-2789 -469 c-3
-3 -12 -4 -19 -1 -8 3 -5 6 6 6 11 1 17 -2 13 -5z m-2987 -19 c0 -8 -4 -15
-10 -15 -5 0 -10 7 -10 15 0 8 5 15 10 15 6 0 10 -7 10 -15z m1847 -201 c-3
-3 -12 -4 -19 -1 -8 3 -5 6 6 6 11 1 17 -2 13 -5z m163 -3365 c0 -5 -7 -9 -15
-9 -8 0 -15 7 -15 15 0 9 6 12 15 9 8 -4 15 -10 15 -15z"/>
<path d="M22352 25628 c-14 -14 -16 -38 -3 -38 10 0 26 39 19 46 -2 2 -10 -2
-16 -8z"/>
<path d="M14780 29902 c0 -5 26 -15 58 -22 31 -7 65 -16 74 -21 26 -14 212
-33 234 -25 18 8 18 8 -1 16 -11 4 -54 10 -95 14 -41 4 -114 16 -162 27 -99
21 -108 22 -108 11z"/>
<path d="M15473 29853 c9 -2 23 -2 30 0 6 3 -1 5 -18 5 -16 0 -22 -2 -12 -5z"/>
<path d="M13635 28065 c-145 -16 -343 -49 -405 -69 -25 -7 -66 -28 -92 -45
-71 -48 -204 -111 -256 -121 -26 -5 -58 -13 -72 -18 -24 -9 -24 -9 10 -20 58
-17 131 -32 215 -41 109 -13 256 -37 340 -57 39 -9 90 -20 115 -25 25 -5 92
-22 150 -39 58 -17 121 -35 141 -40 80 -21 229 -113 308 -191 15 -15 36 -28
46 -30 11 -3 29 -23 41 -46 11 -23 25 -47 31 -55 6 -7 13 -52 17 -101 6 -74 5
-88 -8 -93 -9 -3 -16 -14 -16 -23 0 -38 -38 -118 -73 -153 -27 -27 -37 -43
-32 -57 4 -13 -3 -26 -25 -44 -16 -14 -30 -35 -30 -45 0 -13 -9 -22 -25 -26
-30 -8 -32 -25 -4 -60 19 -24 19 -26 2 -26 -10 0 -52 9 -93 21 -374 101 -377
101 -665 106 -312 6 -449 -8 -695 -72 -81 -21 -198 -70 -270 -111 -30 -18 -87
-50 -126 -72 -39 -22 -76 -47 -82 -55 -7 -8 -27 -21 -44 -28 -18 -7 -40 -21
-50 -31 -10 -10 -32 -21 -49 -25 -18 -3 -36 -17 -46 -34 -13 -22 -25 -29 -48
-29 -17 0 -40 -6 -51 -14 -11 -8 -46 -18 -79 -22 -33 -4 -63 -9 -67 -10 -5 -1
-14 -2 -21 -3 -16 -1 -39 -70 -41 -119 -1 -33 14 -56 90 -135 41 -43 166 -71
305 -68 78 1 107 -2 150 -19 30 -12 97 -26 149 -31 56 -6 119 -20 155 -35 164
-65 304 -99 510 -124 50 -6 121 -18 159 -26 96 -23 388 -23 472 0 80 21 123
21 131 0 3 -9 2 -24 -4 -33 -16 -26 -107 -76 -211 -116 -53 -21 -109 -43 -124
-49 l-27 -12 34 -33 c37 -34 45 -73 22 -101 -12 -15 -82 -64 -127 -88 -56 -30
-119 -44 -264 -57 -83 -7 -159 -16 -169 -20 -17 -7 -17 -8 1 -21 46 -32 480
-61 882 -60 105 1 119 3 155 26 22 14 43 24 48 22 4 -1 7 2 7 7 0 9 26 21 43
20 10 0 90 44 98 54 3 5 21 12 40 17 19 5 50 13 69 18 19 5 57 21 84 36 27 14
54 26 61 26 6 0 22 11 35 25 14 15 28 21 34 16 21 -16 75 9 114 54 45 51 72
131 72 213 0 46 -2 52 -20 52 -12 0 -40 -20 -64 -45 -46 -47 -74 -55 -100 -29
-34 34 -17 65 50 87 55 19 74 60 74 158 0 59 3 78 15 83 27 10 44 -5 61 -57
l17 -52 13 30 c7 17 13 38 14 48 0 9 4 17 9 17 5 0 18 19 30 43 20 42 46 76
107 141 18 19 35 44 39 57 4 13 25 61 46 105 22 45 39 87 39 93 0 7 16 41 35
76 19 35 43 92 55 126 11 35 26 72 34 83 7 12 16 38 20 60 4 21 11 46 16 55 5
9 12 46 15 84 5 47 11 67 20 67 21 0 31 27 39 95 3 33 10 83 15 110 5 30 5 57
0 67 -15 27 -145 109 -163 102 -9 -3 -16 -1 -16 5 0 5 -14 26 -31 45 -37 42
-58 151 -37 186 7 11 16 20 21 20 4 0 17 8 28 19 16 14 19 27 14 62 -3 24 -12
58 -19 74 -16 33 -24 57 -22 66 0 3 -11 22 -26 42 -16 19 -28 40 -28 45 0 20
-81 81 -151 115 -79 37 -151 53 -319 68 -58 5 -155 13 -216 19 -145 13 -409
11 -559 -5z m-225 -1361 c127 -19 459 -120 490 -150 12 -12 9 -14 -22 -14 -20
0 -49 5 -65 11 -30 11 -172 14 -273 5 -191 -17 -268 -26 -300 -36 -19 -6 -93
-11 -165 -10 -71 0 -177 -5 -235 -11 -58 -6 -151 -14 -207 -18 -95 -8 -107
-11 -197 -59 -55 -29 -117 -54 -144 -58 -26 -3 -57 -12 -69 -20 -35 -22 -50
-17 -25 9 12 12 34 37 49 55 15 19 57 48 97 68 39 19 98 50 131 69 67 39 355
137 455 154 173 31 297 32 480 5z m5 -365 c21 -21 -13 -44 -93 -63 -76 -18
-82 -18 -106 -2 -30 19 -33 42 -8 69 15 18 26 19 107 13 50 -4 94 -11 100 -17z
m-703 -196 c8 -10 30 -45 48 -78 18 -33 55 -93 82 -132 53 -80 70 -129 46
-138 -32 -13 -326 76 -384 115 -53 37 -84 76 -84 106 0 27 19 39 76 47 45 7
128 48 159 78 24 24 38 24 57 2z"/>
<path d="M20430 26665 c0 -9 9 -15 25 -15 16 0 25 6 25 15 0 9 -9 15 -25 15
-16 0 -25 -6 -25 -15z"/>
<path d="M9361 23579 c-1 -18 39 -59 57 -59 7 0 12 -5 12 -10 0 -6 12 -16 28
-22 27 -12 92 -75 138 -134 13 -17 34 -36 47 -43 32 -17 53 -56 62 -115 12
-85 26 -96 70 -51 32 31 33 81 3 123 -64 87 -110 142 -118 142 -5 0 -35 16
-67 35 -31 19 -70 37 -85 40 -15 4 -28 10 -28 15 0 5 -18 19 -40 31 -22 13
-40 26 -40 31 0 4 -6 8 -14 8 -8 0 -17 6 -19 13 -4 8 -6 7 -6 -4z"/>
<path d="M15563 22972 c-13 -21 -3 -45 17 -40 7 2 19 -8 26 -21 21 -40 54 -54
54 -23 0 15 -70 102 -82 102 -2 0 -8 -8 -15 -18z"/>
<path d="M19150 19350 c0 -5 5 -10 10 -10 6 0 10 5 10 10 0 6 -4 10 -10 10 -5
0 -10 -4 -10 -10z"/>
<path d="M11644 16391 c-63 -39 -211 -158 -299 -242 -105 -101 -171 -202 -218
-336 -31 -88 -31 -89 -32 -293 0 -220 2 -238 62 -455 53 -194 106 -320 201
-475 25 -41 57 -88 72 -105 15 -16 46 -56 70 -88 24 -32 45 -55 48 -52 3 3 -2
13 -10 22 -67 77 -165 253 -233 418 -61 149 -64 157 -89 255 -44 174 -60 296
-58 440 4 280 58 384 357 680 160 159 201 210 191 235 -7 20 -25 19 -62 -4z"/>
<path d="M22240 15605 c7 -8 38 -29 69 -45 126 -67 227 -199 251 -328 15 -84
-5 -211 -70 -437 -18 -60 -38 -132 -46 -158 -23 -83 -104 -330 -121 -372 -14
-32 -134 -257 -187 -350 -14 -23 -199 -301 -236 -353 -14 -19 -32 -45 -40 -58
-8 -12 -34 -50 -57 -83 -24 -33 -43 -63 -43 -66 0 -13 32 11 49 38 11 18 26
41 33 52 7 11 36 47 63 80 142 168 343 481 460 715 124 248 260 688 272 880 5
79 2 110 -16 180 -47 180 -116 251 -292 300 -91 25 -106 26 -89 5z"/>
</g>
</svg>
